<?xml version="1.0" encoding="UTF-8"?>
<svg id="_레이어_1" data-name="레이어 1" xmlns="http://www.w3.org/2000/svg" viewBox="0 0 60 60">
  <defs>
    <style>
      .cls-1 {
        fill: #182448;
      }

      .cls-2 {
        fill: #9295c9;
      }
    </style>
  </defs>
  <path class="cls-1" d="M45,60H15c-8.28,0-15-6.72-15-15V12C0,5.37,5.37,0,12,0h33C53.28,0,60,6.72,60,15v30c0,8.28-6.72,15-15,15Z"/>
  <g>
    <path class="cls-2" d="M14.7,35.76l-2.11,6.82h-6.61l8.89-25.62h8.42l9.3,25.62h-6.95l-2.35-6.82h-8.59ZM22.26,31.3l-1.91-5.47c-.52-1.5-1.03-3.2-1.49-4.64h-.08c-.43,1.44-.83,3.15-1.3,4.64l-1.8,5.47h6.58Z"/>
    <path class="cls-2" d="M40.29,35.17c.22,2.23,2.92,3.4,5.89,3.4,2.21,0,4.01-.25,5.85-.84l.85,4.03c-2.22.87-4.76,1.28-7.56,1.28-6.96,0-11-3.78-11-9.57,0-4.22,2.95-9.95,10.39-9.95,6.95,0,9.29,5.2,9.29,9.46,0,.9-.13,1.8-.23,2.19h-13.49ZM48.15,31.05c0-1.06-.63-3.61-3.76-3.61-2.82,0-3.96,2.18-4.17,3.61h7.92Z"/>
  </g>
</svg>