<?xml version="1.0" encoding="UTF-8"?>
<svg id="_레이어_1" data-name="레이어 1" xmlns="http://www.w3.org/2000/svg" viewBox="0 0 60 60">
  <defs>
    <style>
      .cls-1 {
        fill: #310304;
      }

      .cls-2 {
        fill: #ec9014;
      }
    </style>
  </defs>
  <path class="cls-1" d="M45,60H15c-8.28,0-15-6.72-15-15V12C0,5.37,5.37,0,12,0h33C53.28,0,60,6.72,60,15v30c0,8.28-6.72,15-15,15Z"/>
  <g>
    <path class="cls-2" d="M20.79,36.64l-2.05,6.88h-6.4l8.61-25.84h8.16l9.01,25.84h-6.73l-2.27-6.88h-8.32ZM28.11,32.13l-1.85-5.52c-.51-1.51-1-3.23-1.44-4.68h-.07c-.41,1.45-.8,3.18-1.26,4.68l-1.74,5.51h6.37Z"/>
    <path class="cls-2" d="M47.66,19.46c0,1.63-1.21,2.98-3.29,2.98s-3.21-1.35-3.21-2.98,1.23-2.98,3.25-2.98,3.21,1.31,3.24,2.98ZM41.35,43.52v-18.76h6.08v18.76h-6.08Z"/>
  </g>
</svg>