<?xml version="1.0" encoding="UTF-8"?>
<svg id="_레이어_1" data-name="레이어 1" xmlns="http://www.w3.org/2000/svg" viewBox="0 0 60 60">
  <defs>
    <style>
      .cls-1 {
        fill: #fff;
      }

      .cls-2 {
        fill: #040000;
      }
    </style>
  </defs>
  <path class="cls-1" d="M45,60H15c-8.28,0-15-6.72-15-15V12C0,5.37,5.37,0,12,0h33c8.28,0,15,6.72,15,15v30c0,8.28-6.72,15-15,15Z"/>
  <g>
    <polygon class="cls-2" points="9.98 8.17 50.02 8.17 46.43 48.09 29.97 52.76 13.53 48.09 9.98 8.17"/>
    <polygon class="cls-1" points="40.78 17.42 19.22 17.42 19.56 22.19 35.78 22.19 35.45 26.86 24.64 26.86 24.88 31.55 35.21 31.55 34.85 36.86 30.1 38.49 25.25 36.86 25.13 33.91 20.38 33.91 20.77 40.39 30 43.5 39.37 40.39 40.78 17.42"/>
  </g>
</svg>