<?xml version="1.0" encoding="UTF-8"?>
<svg id="_레이어_1" data-name="레이어 1" xmlns="http://www.w3.org/2000/svg" viewBox="0 0 60 60">
  <defs>
    <style>
      .cls-1 {
        fill: #37b0e6;
      }

      .cls-2 {
        fill: #ec6e60;
      }

      .cls-3 {
        fill: #040000;
      }

      .cls-4 {
        fill: #765da6;
      }

      .cls-5 {
        fill: #42b479;
      }

      .cls-6 {
        fill: #e74e21;
      }
    </style>
  </defs>
  <path class="cls-3" d="M45,60H15c-8.28,0-15-6.72-15-15V12C0,5.37,5.37,0,12,0h33c8.28,0,15,6.72,15,15v30c0,8.28-6.72,15-15,15Z"/>
  <g>
    <path class="cls-6" d="M30.05,23.61h-6.39c-3.53,0-6.39-2.86-6.39-6.39h0c0-3.53,2.86-6.39,6.39-6.39h6.39v12.78Z"/>
    <path class="cls-4" d="M30.05,36.39h-6.39c-3.53,0-6.39-2.86-6.39-6.39h0c0-3.53,2.86-6.39,6.39-6.39h6.39v12.78Z"/>
    <rect class="cls-1" x="29.95" y="23.61" width="12.78" height="12.78" rx="6.39" ry="6.39"/>
    <path class="cls-5" d="M23.65,49.17h0c-3.53,0-6.39-2.86-6.39-6.39h0c0-3.53,2.86-6.39,6.39-6.39h6.39v6.39c0,3.53-2.86,6.39-6.39,6.39Z"/>
    <path class="cls-2" d="M29.95,23.61h6.39c3.53,0,6.39-2.86,6.39-6.39h0c0-3.53-2.86-6.39-6.39-6.39h-6.39v12.78Z"/>
  </g>
</svg>