<?xml version="1.0" encoding="UTF-8"?>
<svg id="_레이어_1" data-name="레이어 1" xmlns="http://www.w3.org/2000/svg" viewBox="0 0 60 60">
  <defs>
    <style>
      .cls-1 {
        fill: #da5112;
      }

      .cls-2 {
        fill: #fff;
      }

      .cls-3 {
        fill: #ed6a1a;
      }

      .cls-4 {
        fill: #efeeed;
      }
    </style>
  </defs>
  <path class="cls-2" d="M45,60H15c-8.28,0-15-6.72-15-15V12C0,5.37,5.37,0,12,0h33c8.28,0,15,6.72,15,15v30c0,8.28-6.72,15-15,15Z"/>
  <g>
    <polygon class="cls-1" points="9.98 7.7 50.02 7.7 46.43 47.62 29.97 52.3 13.53 47.62 9.98 7.7"/>
    <polygon class="cls-3" points="30 11.14 46.11 11.14 43.18 45 30 48.76 30 11.14"/>
    <polygon class="cls-2" points="30 17.04 40.84 17.04 40.5 21.76 30 21.76 30 17.04"/>
    <polygon class="cls-2" points="30 26.47 40.08 26.47 39.35 40.01 30 43.1 30 38.07 34.76 36.49 35.04 31.22 30 31.22 30 26.47"/>
    <g>
      <polygon class="cls-4" points="30 17.04 19.29 17.04 20 31.22 30 31.22 30 26.47 24.65 26.47 24.22 21.76 30 21.76 30 17.04"/>
      <polygon class="cls-4" points="24.95 33.54 25.3 36.49 30 38.07 30 43.1 20.73 40.01 20.17 33.54 24.95 33.54"/>
    </g>
  </g>
</svg>