<?xml version="1.0" encoding="UTF-8"?>
<svg id="_레이어_1" data-name="레이어 1" xmlns="http://www.w3.org/2000/svg" viewBox="0 0 60 60">
  <defs>
    <style>
      .cls-1 {
        fill: #00b6ee;
      }

      .cls-2 {
        fill: #041e34;
      }
    </style>
  </defs>
  <path class="cls-2" d="M45,60H15c-8.28,0-15-6.72-15-15V12C0,5.37,5.37,0,12,0h33C53.28,0,60,6.72,60,15v30c0,8.28-6.72,15-15,15Z"/>
  <g>
    <path class="cls-1" d="M12.66,17.04h6.35v20.79h11.94v5.12H12.66v-25.91Z"/>
    <path class="cls-1" d="M34.64,30.52c0-3.06-.04-4.81-.16-6.38h5.43l.2,3.73h.15c1.05-3,3.68-4.19,5.73-4.19.57,0,.86,0,1.35.12v5.67c-.52-.11-1.05-.2-1.81-.2-2.6,0-4.13,1.27-4.49,3.07-.06.36-.07.74-.07,1.11v9.51h-6.34v-12.43Z"/>
  </g>
</svg>