<?xml version="1.0" encoding="UTF-8"?>
<svg id="_레이어_1" data-name="레이어 1" xmlns="http://www.w3.org/2000/svg" viewBox="0 0 60 60">
  <defs>
    <style>
      .cls-1 {
        fill: #182448;
      }

      .cls-2 {
        fill: #9295c9;
      }
    </style>
  </defs>
  <path class="cls-1" d="M45,60H15c-8.28,0-15-6.72-15-15V12C0,5.37,5.37,0,12,0h33C53.28,0,60,6.72,60,15v30c0,8.28-6.72,15-15,15Z"/>
  <g>
    <path class="cls-2" d="M29.21,19.15c-1.74-1.33-4.4-2.11-8.17-2.11-4.09,0-6.82.26-8.73.56v25.35h6.03v-9.07c.59.1,1.4.17,2.31.17,1.86,0,3.55-.21,5.03-.64,1.58-.46,2.94-1.18,4.03-2.17,1.28-1.13,2.06-2.77,2.31-4.63.06-.46.1-.93.1-1.41,0-2.64-1.22-4.79-2.91-6.04ZM20.64,29.43c-1.03,0-1.74-.05-2.3-.19v-7.46c.46-.09,1.38-.19,2.76-.19,3.14,0,4.99,1.28,4.99,3.69,0,2.67-2.17,4.15-5.45,4.15Z"/>
    <path class="cls-2" d="M46.39,23.85c-1.96,0-4.49,1.18-5.49,4.15h-.14l-.2-3.69h-5.21c.11,1.56.15,3.29.15,6.33v12.32h6.09v-9.43c0-.37.02-.75.07-1.1.34-1.78,1.81-3.04,4.3-3.04.72,0,1.24.09,1.73.2v-5.62c-.48-.11-.75-.11-1.3-.11Z"/>
  </g>
</svg>