<?xml version="1.0" encoding="UTF-8"?>
<svg id="_레이어_1" data-name="레이어 1" xmlns="http://www.w3.org/2000/svg" viewBox="0 0 60 60">
  <defs>
    <style>
      .cls-1 {
        fill: #00b6ee;
      }

      .cls-2 {
        fill: #041e34;
      }
    </style>
  </defs>
  <path class="cls-2" d="M45,60H15c-8.28,0-15-6.72-15-15V12C0,5.37,5.37,0,12,0h33c8.28,0,15,6.72,15,15v30c0,8.28-6.72,15-15,15Z"/>
  <g>
    <path class="cls-1" d="M11.66,17.39c1.9-.3,4.62-.56,8.69-.56,3.75,0,6.4.78,8.13,2.1,1.68,1.25,2.89,3.4,2.89,6.03,0,2.43-.8,4.63-2.39,6.04-2.11,1.92-5.18,2.81-9.01,2.81-.91,0-1.71-.07-2.3-.17v9.06h-6v-25.32ZM17.65,29.01c.55.13,1.26.19,2.29.19,3.26,0,5.42-1.48,5.42-4.15,0-2.4-1.85-3.68-4.97-3.68-1.37,0-2.28.1-2.74.19v7.45Z"/>
    <path class="cls-1" d="M34.31,37.47c1.16.72,3.66,1.52,5.49,1.52s2.65-.59,2.65-1.5c0-.96-.6-1.39-2.92-2.03-4.14-1.12-5.84-3.29-5.81-5.64,0-3.55,3.13-6.2,8.04-6.2,2.39,0,4.54.55,5.73,1.16l-1.05,4.1c-.88-.45-2.75-1.15-4.51-1.15-1.46,0-2.34.5-2.34,1.47,0,.92.84,1.38,3.3,2.09,3.79,1.08,5.43,2.86,5.46,5.78,0,3.36-2.7,6.09-8.52,6.09-2.72,0-5.01-.59-6.62-1.39l1.1-4.3Z"/>
  </g>
</svg>